# xmcd CD database file
#
# Track frame offsets:
#	150
#	11609
#	41899
#	67422
#	102824
#	116877
#	134501
#	158861
#	188101
#	205581
#	221568
#	239569
#	256235
#
# Disc length: 3600 seconds
#
# Revision: 0
# Processed by: cddbd v1.5.1PL2 Copyright (c) Steve Scherf et al.
# Submitted via: CDex 1.51
#
DISCID=c50e0e0d
DTITLE=Pulse Therapy - Attack The GRADIUS 〜Challengers 2002〜
DYEAR=2002
DGENRE=Game
TTITLE0=Gradius short medley MIX - GIL
TTITLE1=GRR - NYOU.
TTITLE2=Challenger 2002 [Speed Mix] - shun._
TTITLE3=21,DECEMBER FIVE-NINE MIX - Project I-zk
TTITLE4=Gradiusic Pinball - Roskil
TTITLE5=Gradius beat crush challenge - DENIM
TTITLE6=Split drum mix - KOKOU (from GAMSIC)
TTITLE7=challenger 1985 (loopdrive remix) - wat (from LOOPS)
TTITLE8=GRADIUS-HIGHer-Z - Wiz.
TTITLE9=gradiusquash - baddy
TTITLE10=Fall Downer - Pulse Therapy
TTITLE11=osteoporosis (Now on sale! Mix) - DOVE-TERROLIST
TTITLE12=Try Extra Stage !! - G
EXTD=YEAR: 2002
EXTT0=
EXTT1=
EXTT2=
EXTT3=
EXTT4=
EXTT5=
EXTT6=
EXTT7=
EXTT8=
EXTT9=
EXTT10=
EXTT11=
EXTT12=
PLAYORDER=
